<svg xmlns="http://www.w3.org/2000/svg" width="16" height="15" fill="none" viewBox="0 0 16 15"><path fill="#fff" d="M13.1004 2.94138L10.0434 1.18265C9.04324 0.605784 7.81765 0.605784 6.81746 1.18265L3.74645 2.94138C2.76034 3.51824 2.1405 4.58755 2.1405 5.7272V9.25873C2.1405 10.4125 2.76034 11.4677 3.74645 12.0446L6.80337 13.8174C7.80356 14.3942 9.02915 14.3942 10.0293 13.8174L13.0863 12.0446C14.0865 11.4677 14.6922 10.4125 14.6922 9.25873V5.7272C14.7204 4.58755 14.1006 3.51824 13.1004 2.94138ZM8.4234 10.6376C6.69067 10.6376 5.28195 9.23059 5.28195 7.5C5.28195 5.76941 6.69067 4.36243 8.4234 4.36243C10.1561 4.36243 11.5789 5.76941 11.5789 7.5C11.5789 9.23059 10.1702 10.6376 8.4234 10.6376Z"/></svg>